<svg class="SVGInline-svg vitrio-Header__logo__sPXsP-svg" version="1.1" id="Layer_1" xmlns="http://www.w3.org/2000/svg" xmlns:xlink="http://www.w3.org/1999/xlink" x="0px" y="0px" viewBox="0 0 234.94 178.31" style="enable-background:new 0 0 234.94 178.31;" xml:space="preserve">
  <title>UNDER AMOUR Logo</title>
  <path id="path5" d="M226.94,48.36c0,0-6.15-4.76-26.06-12.07c-17.47-6.43-30.82-7.91-30.82-7.91l0.07,38.13 c0,16.12-18.21,33.23-49.32,33.23h-0.89c-31.1,0-49.31-17.11-49.31-33.23l0.06-38.13c0,0-13.33,1.48-30.81,7.91 C19.94,43.6,13.8,48.36,13.8,48.36c1.48,30.58,48.99,55.78,106.56,55.79h0.01C177.94,104.14,225.47,78.95,226.94,48.36"/>
  <path id="path7" d="M226.96,133.99c0,0-6.15,4.75-26.06,12.07c-17.49,6.43-30.82,7.9-30.82,7.9l0.07-38.13 c0-16.11-18.21-33.22-49.32-33.22l-0.44-0.01h-0.01l-0.43,0.01c-31.11,0-49.32,17.11-49.32,33.22l0.07,38.13 c0,0-13.34-1.47-30.82-7.9c-19.91-7.32-26.07-12.07-26.07-12.07c1.48-30.58,49-55.78,106.58-55.8l0,0 C177.97,78.22,225.49,103.41,226.96,133.99"/>
</svg>